# xmcd CD database file
#
# Track frame offsets:
#	150
#	12677
#	35416
#	58031
#	78023
#	99968
#	122328
#	133090
#	155274
#	173488
#	186473
#	207747
#	231894
#
# Disc length: 3307 seconds
#
# Revision: 0
# Processed by: cddbd v1.5.1PL0 Copyright (c) Steve Scherf et al.
# Submitted via: CDex 1.51
#
DISCID=a70ce90d
DTITLE=ポケット・ビスケッツ - ＴＨＡＮＫＳ
DYEAR=1900
DGENRE=J ポップ
TTITLE0=ミレニアム（Ｏｖｅｒｔｕｒｅ）
TTITLE1=ラプチュラス・ブルー
TTITLE2=イエローイエローハッピー
TTITLE3=レッド・エンジェル
TTITLE4=グリーンマン
TTITLE5=パワー
TTITLE6=青の住人（すみびと）（Ｉｎｔｅｒｌｕｄｅ）
TTITLE7=青の住人（すみびと）
TTITLE8=マーガレット
TTITLE9=まごころ（ＴＨＡＮＫＳヴァージョン）
TTITLE10=マイ・ダイアモンド
TTITLE11=デイズ
TTITLE12=ポケビのうた
EXTD=
EXTT0=
EXTT1=
EXTT2=
EXTT3=
EXTT4=
EXTT5=
EXTT6=
EXTT7=
EXTT8=
EXTT9=
EXTT10=
EXTT11=
EXTT12=
PLAYORDER=
